<svg width="520" height="120" viewBox="0 0 520 120" xmlns="http://www.w3.org/2000/svg" role="img" aria-label="Help Sell My Home Fast">
  <!-- Badge -->
  <g>
    <circle cx="60" cy="60" r="54" fill="#131A34"/>
    <circle cx="60" cy="60" r="54" fill="none" stroke="#C09A4E" stroke-width="2.5"/>
    <circle cx="60" cy="60" r="47" fill="none" stroke="#C09A4E" stroke-width="1" opacity="0.55"/>
    <!-- Star -->
    <path d="M60 22l4.7 9.6 10.6 1.5-7.7 7.5 1.8 10.5L60 46.2l-9.4 4.9 1.8-10.5-7.7-7.5 10.6-1.5z" fill="#C09A4E"/>
    <!-- Mountains -->
    <path d="M22 78 L44 48 L56 66 L66 52 L98 78 Z" fill="#9E1B2F"/>
    <path d="M22 78 L44 48 L52 60 L38 78 Z" fill="#7F1425"/>
    <!-- Field lines -->
    <path d="M24 84 H96" stroke="#C09A4E" stroke-width="2" stroke-linecap="round"/>
    <path d="M32 91 H88" stroke="#C09A4E" stroke-width="1.4" stroke-linecap="round" opacity="0.7"/>
  </g>
  <!-- Wordmark -->
  <g font-family="Georgia, 'Times New Roman', serif">
    <text x="132" y="50" font-size="26" font-weight="700" letter-spacing="1" fill="#131A34">HELP SELL MY</text>
    <text x="132" y="84" font-size="26" font-weight="700" letter-spacing="1" fill="#9E1B2F">HOME FAST</text>
  </g>
  <g font-family="Verdana, Geneva, sans-serif">
    <text x="392" y="47" font-size="11" letter-spacing="3" fill="#6B7183">EST. 2016</text>
  </g>
  <line x1="382" y1="38" x2="382" y2="50" stroke="#C09A4E" stroke-width="1.5"/>
</svg>
